<?xml version="1.0" encoding="UTF-8"?>
<svg xmlns="http://www.w3.org/2000/svg" xmlns:xlink="http://www.w3.org/1999/xlink" width="48px" height="48px" viewBox="0 0 48 48" version="1.1">
<g id="surface1">
<path style=" stroke:none;fill-rule:nonzero;fill:rgb(8.235294%,44.705882%,71.372549%);fill-opacity:1;" d="M 7.054688 42.796875 L 3.285156 0.507812 L 44.714844 0.507812 L 40.941406 42.789062 L 23.976562 47.492188 Z M 7.054688 42.796875 "/>
<path style=" stroke:none;fill-rule:nonzero;fill:rgb(20%,66.27451%,86.27451%);fill-opacity:1;" d="M 24 43.898438 L 37.710938 40.097656 L 40.933594 3.964844 L 24 3.964844 Z M 24 43.898438 "/>
<path style=" stroke:none;fill-rule:nonzero;fill:rgb(100%,100%,100%);fill-opacity:1;" d="M 24 19.285156 L 30.863281 19.285156 L 31.335938 13.976562 L 24 13.976562 L 24 8.789062 L 37.007812 8.789062 L 36.882812 10.179688 L 35.605469 24.472656 L 24 24.472656 Z M 24 19.285156 "/>
<path style=" stroke:none;fill-rule:nonzero;fill:rgb(92.156863%,92.156863%,92.156863%);fill-opacity:1;" d="M 24.03125 32.757812 L 24.007812 32.761719 L 18.230469 31.203125 L 17.863281 27.066406 L 12.65625 27.066406 L 13.382812 35.210938 L 24.007812 38.160156 L 24.03125 38.152344 Z M 24.03125 32.757812 "/>
<path style=" stroke:none;fill-rule:nonzero;fill:rgb(100%,100%,100%);fill-opacity:1;" d="M 30.421875 24.253906 L 29.796875 31.199219 L 24.011719 32.761719 L 24.011719 38.15625 L 34.644531 35.210938 L 34.722656 34.332031 L 35.625 24.253906 Z M 30.421875 24.253906 "/>
<path style=" stroke:none;fill-rule:nonzero;fill:rgb(92.156863%,92.156863%,92.156863%);fill-opacity:1;" d="M 24.019531 8.789062 L 24.019531 13.976562 L 11.488281 13.976562 L 11.386719 12.808594 L 11.148438 10.179688 L 11.027344 8.789062 Z M 24 19.285156 L 24 24.472656 L 18.296875 24.472656 L 18.191406 23.308594 L 17.957031 20.679688 L 17.832031 19.285156 Z M 24 19.285156 "/>
</g>
</svg>
