<?xml version="1.0" encoding="UTF-8"?>
<svg xmlns="http://www.w3.org/2000/svg" xmlns:xlink="http://www.w3.org/1999/xlink" width="48px" height="48px" viewBox="0 0 48 48" version="1.1">
<g id="surface1">
<path style=" stroke:none;fill-rule:nonzero;fill:rgb(3.529412%,18.039216%,12.54902%);fill-opacity:1;" d="M 22.292969 0 L 30.140625 0 L 30.140625 36.328125 C 26.117188 37.09375 23.160156 37.402344 19.949219 37.402344 C 10.367188 37.398438 5.371094 33.070312 5.371094 24.761719 C 5.371094 16.757812 10.671875 11.5625 18.878906 11.5625 C 20.152344 11.5625 21.121094 11.664062 22.292969 11.96875 Z M 22.292969 18.285156 C 21.375 17.980469 20.609375 17.878906 19.644531 17.878906 C 15.667969 17.878906 13.375 20.324219 13.375 24.605469 C 13.375 28.785156 15.566406 31.078125 19.59375 31.078125 C 20.457031 31.078125 21.171875 31.027344 22.292969 30.875 Z M 22.292969 18.285156 "/>
<path style=" stroke:none;fill-rule:nonzero;fill:rgb(3.529412%,18.039216%,12.54902%);fill-opacity:1;" d="M 42.628906 12.121094 L 42.628906 30.316406 C 42.628906 36.582031 42.167969 39.589844 40.792969 42.191406 C 39.519531 44.6875 37.835938 46.265625 34.371094 48 L 27.082031 44.535156 C 30.546875 42.902344 32.230469 41.476562 33.300781 39.285156 C 34.421875 37.042969 34.777344 34.445312 34.777344 27.613281 L 34.777344 12.121094 Z M 34.777344 0.0429688 L 42.628906 0.0429688 L 42.628906 8.09375 L 34.777344 8.09375 Z M 34.777344 0.0429688 "/>
</g>
</svg>
