<?xml version="1.0" encoding="UTF-8"?>
<svg xmlns="http://www.w3.org/2000/svg" xmlns:xlink="http://www.w3.org/1999/xlink" width="48px" height="48px" viewBox="0 0 48 48" version="1.1">
<g id="surface1">
<path style=" stroke:none;fill-rule:evenodd;fill:rgb(22.745098%,30.196078%,32.941176%);fill-opacity:1;" d="M 27.675781 19.050781 L 31.914062 19.050781 L 31.914062 23.363281 L 34.050781 23.363281 C 35.023438 23.363281 36.039062 23.175781 36.976562 22.875 C 37.425781 22.726562 37.949219 22.5 38.398438 22.238281 C 37.800781 21.449219 37.5 20.476562 37.425781 19.5 C 37.3125 18.1875 37.574219 16.460938 38.476562 15.449219 L 38.925781 14.925781 L 39.449219 15.335938 C 40.800781 16.425781 41.886719 17.886719 42.113281 19.613281 C 43.726562 19.125 45.601562 19.238281 47.023438 20.0625 L 47.585938 20.398438 L 47.289062 21 C 46.085938 23.324219 43.574219 24.074219 41.136719 23.925781 C 37.460938 33.039062 29.511719 37.351562 19.835938 37.351562 C 14.851562 37.351562 10.273438 35.476562 7.648438 31.050781 L 7.613281 30.976562 L 7.238281 30.1875 C 6.335938 28.238281 6.074219 26.101562 6.261719 23.960938 L 6.335938 23.324219 L 9.9375 23.324219 L 9.9375 19.050781 L 14.175781 19.050781 L 14.175781 14.851562 L 22.613281 14.851562 L 22.613281 10.613281 L 27.675781 10.613281 Z M 27.675781 19.050781 "/>
<path style=" stroke:none;fill-rule:nonzero;fill:rgb(0%,66.666667%,85.490196%);fill-opacity:1;" d="M 41.398438 20.664062 C 41.699219 18.449219 40.050781 16.726562 39 15.898438 C 37.835938 17.25 37.648438 20.851562 39.488281 22.351562 C 38.4375 23.25 36.300781 24.113281 34.050781 24.113281 L 6.976562 24.113281 C 6.75 26.4375 7.164062 28.574219 8.101562 30.414062 L 8.398438 30.976562 C 8.585938 31.3125 8.8125 31.613281 9.039062 31.949219 C 10.164062 32.023438 11.175781 32.0625 12.113281 32.023438 C 13.949219 31.988281 15.449219 31.761719 16.613281 31.386719 C 16.800781 31.3125 16.949219 31.425781 17.023438 31.574219 C 17.101562 31.761719 16.988281 31.914062 16.835938 31.988281 C 16.6875 32.023438 16.539062 32.101562 16.351562 32.136719 C 15.449219 32.398438 14.476562 32.550781 13.238281 32.625 L 13.011719 32.625 C 12.523438 32.664062 12 32.664062 11.4375 32.664062 C 10.835938 32.664062 10.273438 32.664062 9.601562 32.625 C 11.851562 35.175781 15.375 36.675781 19.800781 36.675781 C 29.175781 36.675781 37.125 32.511719 40.613281 23.210938 C 43.125 23.476562 45.523438 22.835938 46.613281 20.699219 C 44.925781 19.6875 42.675781 20.023438 41.398438 20.664062 Z M 41.398438 20.664062 "/>
<path style=" stroke:none;fill-rule:nonzero;fill:rgb(15.686275%,72.156863%,92.156863%);fill-opacity:1;" d="M 41.398438 20.664062 C 41.699219 18.449219 40.050781 16.726562 39 15.898438 C 37.835938 17.25 37.648438 20.851562 39.488281 22.351562 C 38.4375 23.25 36.300781 24.113281 34.050781 24.113281 L 8.550781 24.113281 C 8.4375 27.675781 9.75 30.375 12.113281 31.988281 C 13.949219 31.949219 15.449219 31.726562 16.613281 31.351562 C 16.800781 31.273438 16.949219 31.386719 17.023438 31.539062 C 17.101562 31.726562 16.988281 31.875 16.835938 31.949219 C 16.6875 31.988281 16.539062 32.0625 16.351562 32.101562 C 15.449219 32.363281 14.398438 32.550781 13.164062 32.625 L 13.125 32.585938 C 16.3125 34.238281 20.925781 34.199219 26.25 32.175781 C 32.175781 29.886719 37.726562 25.539062 41.585938 20.585938 C 41.511719 20.625 41.4375 20.625 41.398438 20.664062 Z M 41.398438 20.664062 "/>
<path style=" stroke:none;fill-rule:nonzero;fill:rgb(0.784314%,54.509804%,72.156863%);fill-opacity:1;" d="M 7.011719 26.925781 C 7.164062 28.164062 7.539062 29.324219 8.101562 30.414062 L 8.398438 30.976562 C 8.585938 31.3125 8.8125 31.613281 9.039062 31.949219 C 10.164062 32.023438 11.175781 32.0625 12.113281 32.023438 C 13.949219 31.988281 15.449219 31.761719 16.613281 31.386719 C 16.800781 31.3125 16.949219 31.425781 17.023438 31.574219 C 17.101562 31.761719 16.988281 31.914062 16.835938 31.988281 C 16.6875 32.023438 16.539062 32.101562 16.351562 32.136719 C 15.449219 32.398438 14.398438 32.585938 13.164062 32.664062 L 13.011719 32.664062 C 12.523438 32.699219 12 32.699219 11.476562 32.699219 C 10.875 32.699219 10.273438 32.699219 9.636719 32.664062 C 11.886719 35.210938 15.449219 36.710938 19.875 36.710938 C 27.898438 36.710938 34.875 33.675781 38.925781 26.960938 L 7.011719 26.960938 Z M 7.011719 26.925781 "/>
<path style=" stroke:none;fill-rule:nonzero;fill:rgb(0.392157%,60.784314%,77.647059%);fill-opacity:1;" d="M 8.8125 26.925781 C 9.300781 29.101562 10.425781 30.824219 12.113281 31.988281 C 13.949219 31.949219 15.449219 31.726562 16.613281 31.351562 C 16.800781 31.273438 16.949219 31.386719 17.023438 31.539062 C 17.101562 31.726562 16.988281 31.875 16.835938 31.949219 C 16.6875 31.988281 16.539062 32.0625 16.351562 32.101562 C 15.449219 32.363281 14.398438 32.550781 13.125 32.625 C 16.3125 34.273438 20.925781 34.238281 26.210938 32.210938 C 29.398438 30.976562 32.511719 29.136719 35.289062 26.925781 Z M 8.8125 26.925781 "/>
<path style=" stroke:none;fill-rule:evenodd;fill:rgb(0%,67.45098%,82.745098%);fill-opacity:1;" d="M 10.648438 19.761719 L 14.324219 19.761719 L 14.324219 23.4375 L 10.648438 23.4375 Z M 10.949219 20.0625 L 11.25 20.0625 L 11.25 23.101562 L 10.949219 23.101562 Z M 11.476562 20.0625 L 11.773438 20.0625 L 11.773438 23.101562 L 11.476562 23.101562 Z M 12.039062 20.0625 L 12.335938 20.0625 L 12.335938 23.101562 L 12.039062 23.101562 Z M 12.601562 20.0625 L 12.898438 20.0625 L 12.898438 23.101562 L 12.601562 23.101562 Z M 13.164062 20.0625 L 13.460938 20.0625 L 13.460938 23.101562 L 13.164062 23.101562 Z M 13.726562 20.0625 L 14.023438 20.0625 L 14.023438 23.101562 L 13.726562 23.101562 Z M 14.851562 15.5625 L 18.523438 15.5625 L 18.523438 19.238281 L 14.851562 19.238281 Z M 15.1875 15.863281 L 15.488281 15.863281 L 15.488281 18.898438 L 15.1875 18.898438 Z M 15.710938 15.863281 L 16.011719 15.863281 L 16.011719 18.898438 L 15.710938 18.898438 Z M 16.273438 15.863281 L 16.574219 15.863281 L 16.574219 18.898438 L 16.273438 18.898438 Z M 16.835938 15.863281 L 17.136719 15.863281 L 17.136719 18.898438 L 16.835938 18.898438 Z M 17.363281 15.863281 L 17.664062 15.863281 L 17.664062 18.898438 L 17.363281 18.898438 Z M 17.925781 15.863281 L 18.226562 15.863281 L 18.226562 18.898438 L 17.925781 18.898438 Z M 17.925781 15.863281 "/>
<path style=" stroke:none;fill-rule:evenodd;fill:rgb(13.72549%,76.078431%,93.333333%);fill-opacity:1;" d="M 14.851562 19.761719 L 18.523438 19.761719 L 18.523438 23.4375 L 14.851562 23.4375 Z M 15.1875 20.0625 L 15.488281 20.0625 L 15.488281 23.101562 L 15.1875 23.101562 Z M 15.710938 20.0625 L 16.011719 20.0625 L 16.011719 23.101562 L 15.710938 23.101562 Z M 16.273438 20.0625 L 16.574219 20.0625 L 16.574219 23.101562 L 16.273438 23.101562 Z M 16.835938 20.0625 L 17.136719 20.0625 L 17.136719 23.101562 L 16.835938 23.101562 Z M 17.363281 20.0625 L 17.664062 20.0625 L 17.664062 23.101562 L 17.363281 23.101562 Z M 17.925781 20.0625 L 18.226562 20.0625 L 18.226562 23.101562 L 17.925781 23.101562 Z M 17.925781 20.0625 "/>
<path style=" stroke:none;fill-rule:evenodd;fill:rgb(0%,67.45098%,82.745098%);fill-opacity:1;" d="M 19.085938 19.761719 L 22.761719 19.761719 L 22.761719 23.4375 L 19.085938 23.4375 Z M 19.386719 20.0625 L 19.6875 20.0625 L 19.6875 23.101562 L 19.386719 23.101562 Z M 19.949219 20.0625 L 20.25 20.0625 L 20.25 23.101562 L 19.949219 23.101562 Z M 20.511719 20.0625 L 20.8125 20.0625 L 20.8125 23.101562 L 20.511719 23.101562 Z M 21.039062 20.0625 L 21.335938 20.0625 L 21.335938 23.101562 L 21.039062 23.101562 Z M 21.601562 20.0625 L 21.898438 20.0625 L 21.898438 23.101562 L 21.601562 23.101562 Z M 22.164062 20.0625 L 22.460938 20.0625 L 22.460938 23.101562 L 22.164062 23.101562 Z M 22.164062 20.0625 "/>
<path style=" stroke:none;fill-rule:evenodd;fill:rgb(13.72549%,76.078431%,93.333333%);fill-opacity:1;" d="M 19.085938 15.5625 L 22.761719 15.5625 L 22.761719 19.238281 L 19.085938 19.238281 Z M 19.386719 15.863281 L 19.6875 15.863281 L 19.6875 18.898438 L 19.386719 18.898438 Z M 19.949219 15.863281 L 20.25 15.863281 L 20.25 18.898438 L 19.949219 18.898438 Z M 20.511719 15.863281 L 20.8125 15.863281 L 20.8125 18.898438 L 20.511719 18.898438 Z M 21.039062 15.863281 L 21.335938 15.863281 L 21.335938 18.898438 L 21.039062 18.898438 Z M 21.601562 15.863281 L 21.898438 15.863281 L 21.898438 18.898438 L 21.601562 18.898438 Z M 22.164062 15.863281 L 22.460938 15.863281 L 22.460938 18.898438 L 22.164062 18.898438 Z M 23.324219 19.761719 L 27 19.761719 L 27 23.4375 L 23.324219 23.4375 Z M 23.625 20.0625 L 23.925781 20.0625 L 23.925781 23.101562 L 23.625 23.101562 Z M 24.1875 20.0625 L 24.488281 20.0625 L 24.488281 23.101562 L 24.1875 23.101562 Z M 24.710938 20.0625 L 25.011719 20.0625 L 25.011719 23.101562 L 24.710938 23.101562 Z M 25.273438 20.0625 L 25.574219 20.0625 L 25.574219 23.101562 L 25.273438 23.101562 Z M 25.835938 20.0625 L 26.136719 20.0625 L 26.136719 23.101562 L 25.835938 23.101562 Z M 26.398438 20.0625 L 26.699219 20.0625 L 26.699219 23.101562 L 26.398438 23.101562 Z M 26.398438 20.0625 "/>
<path style=" stroke:none;fill-rule:evenodd;fill:rgb(0%,67.45098%,82.745098%);fill-opacity:1;" d="M 23.324219 15.5625 L 27 15.5625 L 27 19.238281 L 23.324219 19.238281 Z M 23.625 15.863281 L 23.925781 15.863281 L 23.925781 18.898438 L 23.625 18.898438 Z M 24.1875 15.863281 L 24.488281 15.863281 L 24.488281 18.898438 L 24.1875 18.898438 Z M 24.710938 15.863281 L 25.011719 15.863281 L 25.011719 18.898438 L 24.710938 18.898438 Z M 25.273438 15.863281 L 25.574219 15.863281 L 25.574219 18.898438 L 25.273438 18.898438 Z M 25.835938 15.863281 L 26.136719 15.863281 L 26.136719 18.898438 L 25.835938 18.898438 Z M 26.398438 15.863281 L 26.699219 15.863281 L 26.699219 18.898438 L 26.398438 18.898438 Z M 26.398438 15.863281 "/>
<path style=" stroke:none;fill-rule:evenodd;fill:rgb(13.72549%,76.078431%,93.333333%);fill-opacity:1;" d="M 23.324219 11.324219 L 27 11.324219 L 27 15 L 23.324219 15 Z M 23.625 11.625 L 23.925781 11.625 L 23.925781 14.664062 L 23.625 14.664062 Z M 24.1875 11.625 L 24.488281 11.625 L 24.488281 14.664062 L 24.1875 14.664062 Z M 24.710938 11.625 L 25.011719 11.625 L 25.011719 14.664062 L 24.710938 14.664062 Z M 25.273438 11.625 L 25.574219 11.625 L 25.574219 14.664062 L 25.273438 14.664062 Z M 25.835938 11.625 L 26.136719 11.625 L 26.136719 14.664062 L 25.835938 14.664062 Z M 26.398438 11.625 L 26.699219 11.625 L 26.699219 14.664062 L 26.398438 14.664062 Z M 26.398438 11.625 "/>
<path style=" stroke:none;fill-rule:evenodd;fill:rgb(0%,67.45098%,82.745098%);fill-opacity:1;" d="M 27.5625 19.761719 L 31.238281 19.761719 L 31.238281 23.4375 L 27.5625 23.4375 Z M 27.863281 20.0625 L 28.164062 20.0625 L 28.164062 23.101562 L 27.863281 23.101562 Z M 28.386719 20.0625 L 28.6875 20.0625 L 28.6875 23.101562 L 28.386719 23.101562 Z M 28.949219 20.0625 L 29.25 20.0625 L 29.25 23.101562 L 28.949219 23.101562 Z M 29.511719 20.0625 L 29.8125 20.0625 L 29.8125 23.101562 L 29.511719 23.101562 Z M 30.074219 20.0625 L 30.375 20.0625 L 30.375 23.101562 L 30.074219 23.101562 Z M 30.636719 20.0625 L 30.9375 20.0625 L 30.9375 23.101562 L 30.636719 23.101562 Z M 30.636719 20.0625 "/>
<path style=" stroke:none;fill-rule:evenodd;fill:rgb(83.137255%,93.333333%,94.509804%);fill-opacity:1;" d="M 18.300781 29.363281 C 18.863281 29.363281 19.3125 29.8125 19.3125 30.375 C 19.3125 30.9375 18.863281 31.386719 18.300781 31.386719 C 17.738281 31.386719 17.289062 30.9375 17.289062 30.375 C 17.289062 29.8125 17.738281 29.363281 18.300781 29.363281 "/>
<path style=" stroke:none;fill-rule:evenodd;fill:rgb(22.745098%,30.196078%,32.941176%);fill-opacity:1;" d="M 18.300781 29.664062 C 18.375 29.664062 18.488281 29.664062 18.5625 29.699219 C 18.488281 29.738281 18.414062 29.851562 18.414062 29.960938 C 18.414062 30.113281 18.5625 30.261719 18.710938 30.261719 C 18.824219 30.261719 18.9375 30.1875 18.976562 30.113281 C 19.011719 30.1875 19.011719 30.300781 19.011719 30.375 C 19.011719 30.789062 18.675781 31.085938 18.300781 31.085938 C 17.886719 31.085938 17.585938 30.75 17.585938 30.375 C 17.585938 30 17.886719 29.664062 18.300781 29.664062 M 0.414062 27.300781 L 47.4375 27.300781 C 46.425781 27.039062 44.210938 26.699219 44.550781 25.351562 C 42.675781 27.488281 38.210938 26.851562 37.050781 25.800781 C 35.773438 27.636719 28.425781 26.925781 27.9375 25.5 C 26.363281 27.375 21.449219 27.375 19.875 25.5 C 19.351562 26.925781 12 27.636719 10.761719 25.800781 C 9.636719 26.851562 5.136719 27.488281 3.261719 25.351562 C 3.675781 26.664062 1.425781 27.039062 0.414062 27.300781 "/>
<path style=" stroke:none;fill-rule:nonzero;fill:rgb(74.901961%,85.882353%,87.843137%);fill-opacity:1;" d="M 21 36.675781 C 18.488281 35.476562 17.136719 33.863281 16.351562 32.101562 C 15.414062 32.363281 14.289062 32.550781 13.011719 32.625 C 12.523438 32.664062 12 32.664062 11.476562 32.664062 C 10.835938 32.664062 10.199219 32.664062 9.523438 32.625 C 11.773438 34.875 14.625 36.636719 19.835938 36.675781 Z M 21 36.675781 "/>
<path style=" stroke:none;fill-rule:nonzero;fill:rgb(83.137255%,93.333333%,94.509804%);fill-opacity:1;" d="M 17.289062 33.710938 C 16.949219 33.226562 16.613281 32.664062 16.351562 32.101562 C 15.414062 32.363281 14.289062 32.550781 13.011719 32.625 C 13.875 33.074219 15.148438 33.523438 17.289062 33.710938 Z M 17.289062 33.710938 "/>
</g>
</svg>
