<?xml version="1.0" encoding="UTF-8"?>
<svg xmlns="http://www.w3.org/2000/svg" xmlns:xlink="http://www.w3.org/1999/xlink" width="48px" height="48px" viewBox="0 0 48 48" version="1.1">
<g id="surface1">
<path style=" stroke:none;fill-rule:nonzero;fill:rgb(20%,20%,20%);fill-opacity:1;" d="M 48 24 C 48 37.253906 37.253906 48 24 48 C 10.746094 48 0 37.253906 0 24 C 0 10.746094 10.746094 0 24 0 C 37.253906 0 48 10.746094 48 24 Z M 48 24 "/>
<path style=" stroke:none;fill-rule:nonzero;fill:rgb(100%,100%,100%);fill-opacity:1;" d="M 24 8.804688 C 15.609375 8.804688 8.804688 15.609375 8.804688 24 C 8.804688 30.609375 13.023438 36.226562 18.910156 38.324219 C 18.9375 38.335938 19.039062 38.371094 19.070312 38.382812 C 19.152344 38.410156 19.246094 38.429688 19.339844 38.429688 C 19.835938 38.429688 20.230469 38.023438 20.230469 37.539062 C 20.230469 37.507812 20.230469 37.492188 20.230469 37.460938 C 20.230469 36.65625 20.230469 35.632812 20.230469 34.820312 C 19.265625 35.015625 17.804688 35.203125 17.007812 34.820312 C 15.976562 34.320312 15.449219 33.683594 14.953125 32.429688 C 14.335938 30.898438 12.910156 30.476562 12.851562 30.214844 C 12.796875 29.945312 14.363281 29.539062 15.167969 30.46875 C 15.976562 31.398438 16.789062 33.253906 18.523438 33.074219 C 19.378906 32.992188 19.929688 32.851562 20.277344 32.746094 C 20.34375 32.148438 20.539062 31.40625 21.039062 30.882812 C 16.960938 30.207031 14.242188 28.011719 14.242188 23.710938 C 14.242188 21.75 14.804688 20.230469 15.796875 19.097656 C 15.628906 18.160156 15.347656 15.984375 16.097656 15.226562 C 16.097656 15.226562 17.15625 14.570312 20.195312 16.707031 C 21.328125 16.445312 22.585938 16.3125 23.925781 16.3125 C 23.953125 16.3125 23.972656 16.3125 24 16.3125 C 24.027344 16.3125 24.046875 16.3125 24.074219 16.3125 C 25.425781 16.320312 26.679688 16.453125 27.804688 16.707031 C 30.84375 14.570312 31.902344 15.226562 31.902344 15.226562 C 32.652344 15.992188 32.371094 18.167969 32.203125 19.097656 C 33.195312 20.242188 33.757812 21.757812 33.757812 23.710938 C 33.757812 28.011719 31.050781 30.207031 26.960938 30.882812 C 27.742188 31.695312 27.769531 33.019531 27.769531 33.5625 C 27.769531 34.078125 27.769531 37.527344 27.769531 37.546875 C 27.769531 38.042969 28.171875 38.4375 28.660156 38.4375 C 28.734375 38.4375 28.800781 38.429688 28.875 38.410156 C 28.894531 38.410156 28.949219 38.390625 28.96875 38.382812 C 34.921875 36.320312 39.195312 30.664062 39.195312 24.007812 C 39.195312 15.601562 32.390625 8.804688 24 8.804688 Z M 24 8.804688 "/>
</g>
</svg>
