<?xml version="1.0" encoding="UTF-8"?>
<svg xmlns="http://www.w3.org/2000/svg" xmlns:xlink="http://www.w3.org/1999/xlink" width="48px" height="48px" viewBox="0 0 48 48" version="1.1">
<g id="surface1">
<path style=" stroke:none;fill-rule:nonzero;fill:rgb(94.117647%,85.882353%,30.980392%);fill-opacity:1;" d="M 0.527344 0.527344 L 47.472656 0.527344 L 47.472656 47.472656 L 0.527344 47.472656 Z M 0.527344 0.527344 "/>
<path style=" stroke:none;fill-rule:nonzero;fill:rgb(19.607843%,20%,18.823529%);fill-opacity:1;" d="M 43.628906 36.277344 C 43.285156 34.132812 41.890625 32.335938 37.753906 30.65625 C 36.316406 29.996094 34.714844 29.523438 34.238281 28.4375 C 34.066406 27.800781 34.042969 27.445312 34.152344 27.0625 C 34.460938 25.816406 35.945312 25.429688 37.125 25.785156 C 37.882812 26.039062 38.601562 26.625 39.035156 27.558594 C 41.058594 26.246094 41.054688 26.253906 42.46875 25.351562 C 41.953125 24.550781 41.675781 24.179688 41.335938 23.835938 C 40.117188 22.472656 38.457031 21.773438 35.804688 21.828125 L 34.421875 22.007812 C 33.09375 22.339844 31.832031 23.035156 31.089844 23.96875 C 28.867188 26.492188 29.503906 30.902344 32.207031 32.71875 C 34.871094 34.71875 38.785156 35.175781 39.285156 37.042969 C 39.769531 39.332031 37.601562 40.074219 35.445312 39.8125 C 33.859375 39.480469 32.972656 38.671875 32.019531 37.203125 C 30.261719 38.222656 30.261719 38.222656 28.453125 39.261719 C 28.882812 40.199219 29.332031 40.621094 30.050781 41.433594 C 33.453125 44.882812 41.960938 44.714844 43.488281 39.492188 C 43.550781 39.316406 43.960938 38.117188 43.628906 36.277344 Z M 26.046875 22.105469 L 21.65625 22.105469 L 21.640625 33.457031 C 21.640625 35.871094 21.765625 38.082031 21.371094 38.761719 C 20.730469 40.097656 19.066406 39.929688 18.304688 39.671875 C 17.535156 39.292969 17.140625 38.753906 16.6875 37.988281 C 16.5625 37.769531 16.46875 37.601562 16.4375 37.589844 L 12.867188 39.773438 C 13.460938 40.992188 14.335938 42.050781 15.453125 42.738281 C 17.128906 43.742188 19.375 44.050781 21.730469 43.507812 C 23.257812 43.0625 24.582031 42.140625 25.273438 40.734375 C 26.269531 38.890625 26.058594 36.660156 26.046875 34.191406 C 26.070312 30.167969 26.046875 26.140625 26.046875 22.105469 Z M 26.046875 22.105469 "/>
</g>
</svg>
