<?xml version="1.0" encoding="UTF-8"?>
<svg xmlns="http://www.w3.org/2000/svg" xmlns:xlink="http://www.w3.org/1999/xlink" width="48px" height="48px" viewBox="0 0 48 48" version="1.1">
<g id="surface1">
<path style=" stroke:none;fill-rule:nonzero;fill:rgb(0%,38.039216%,54.117647%);fill-opacity:1;" d="M 43.855469 36.675781 C 41.28125 36.609375 39.316406 36.847656 37.636719 37.554688 C 37.160156 37.757812 36.398438 37.761719 36.320312 38.359375 C 36.582031 38.636719 36.621094 39.046875 36.832031 39.382812 C 37.230469 40.035156 37.910156 40.902344 38.511719 41.359375 C 39.175781 41.859375 39.855469 42.390625 40.5625 42.824219 C 41.820312 43.589844 43.226562 44.03125 44.441406 44.800781 C 45.15625 45.253906 45.863281 45.824219 46.5625 46.335938 C 46.90625 46.589844 47.136719 46.980469 47.585938 47.140625 L 47.585938 47.066406 C 47.351562 46.769531 47.289062 46.355469 47.074219 46.042969 L 46.125 45.089844 C 45.191406 43.855469 44.011719 42.773438 42.757812 41.871094 C 41.757812 41.152344 39.515625 40.183594 39.097656 39.019531 L 39.027344 38.945312 C 39.734375 38.867188 40.566406 38.609375 41.222656 38.433594 C 42.320312 38.136719 43.304688 38.214844 44.441406 37.921875 L 45.976562 37.480469 L 45.976562 37.191406 C 45.402344 36.601562 44.992188 35.820312 44.367188 35.289062 C 42.730469 33.890625 40.941406 32.5 39.097656 31.335938 C 38.078125 30.691406 36.816406 30.273438 35.734375 29.726562 C 35.371094 29.542969 34.730469 29.445312 34.488281 29.140625 C 33.921875 28.414062 33.609375 27.496094 33.171875 26.652344 C 32.253906 24.882812 31.351562 22.953125 30.539062 21.089844 C 29.984375 19.824219 29.621094 18.570312 28.929688 17.433594 C 25.605469 11.96875 22.03125 8.671875 16.492188 5.433594 C 15.3125 4.742188 13.890625 4.472656 12.390625 4.117188 C 11.585938 4.066406 10.78125 4.019531 9.976562 3.96875 C 9.484375 3.765625 8.976562 3.164062 8.515625 2.871094 C 6.679688 1.710938 1.972656 -0.808594 0.613281 2.503906 C -0.246094 4.597656 1.894531 6.640625 2.660156 7.699219 C 3.199219 8.445312 3.886719 9.277344 4.269531 10.117188 C 4.523438 10.664062 4.566406 11.21875 4.78125 11.796875 C 5.316406 13.230469 5.777344 14.792969 6.464844 16.117188 C 6.8125 16.785156 7.195312 17.492188 7.636719 18.089844 C 7.90625 18.457031 8.367188 18.621094 8.441406 19.1875 C 7.988281 19.820312 7.964844 20.800781 7.710938 21.601562 C 6.566406 25.210938 6.996094 29.691406 8.660156 32.359375 C 9.171875 33.179688 10.375 34.9375 12.027344 34.261719 C 13.472656 33.671875 13.148438 31.847656 13.5625 30.238281 C 13.65625 29.871094 13.597656 29.605469 13.78125 29.359375 L 13.78125 29.433594 L 15.101562 32.066406 C 16.074219 33.636719 17.804688 35.277344 19.269531 36.382812 C 20.03125 36.957031 20.628906 37.949219 21.613281 38.285156 L 21.613281 38.214844 L 21.539062 38.214844 C 21.347656 37.917969 21.050781 37.792969 20.808594 37.554688 C 20.234375 36.992188 19.597656 36.296875 19.125 35.652344 C 17.792969 33.84375 16.613281 31.863281 15.539062 29.800781 C 15.027344 28.8125 14.582031 27.726562 14.148438 26.726562 C 13.980469 26.339844 13.984375 25.753906 13.636719 25.554688 C 13.164062 26.289062 12.464844 26.882812 12.101562 27.75 C 11.515625 29.136719 11.441406 30.828125 11.222656 32.578125 C 11.09375 32.625 11.152344 32.59375 11.074219 32.652344 C 10.058594 32.40625 9.699219 31.359375 9.320312 30.457031 C 8.363281 28.179688 8.183594 24.515625 9.027344 21.898438 C 9.246094 21.21875 10.230469 19.082031 9.832031 18.457031 C 9.640625 17.832031 9.011719 17.472656 8.660156 16.992188 C 8.226562 16.402344 7.792969 15.625 7.488281 14.945312 C 6.707031 13.171875 6.339844 11.179688 5.515625 9.382812 C 5.121094 8.527344 4.453125 7.660156 3.90625 6.894531 C 3.296875 6.050781 2.617188 5.429688 2.148438 4.40625 C 1.980469 4.046875 1.753906 3.464844 2.003906 3.089844 C 2.082031 2.839844 2.191406 2.734375 2.441406 2.652344 C 2.867188 2.324219 4.046875 2.761719 4.488281 2.945312 C 5.664062 3.429688 6.640625 3.894531 7.636719 4.554688 C 8.113281 4.871094 8.597656 5.484375 9.171875 5.652344 L 9.832031 5.652344 C 10.863281 5.886719 12.015625 5.726562 12.976562 6.019531 C 14.679688 6.535156 16.203125 7.339844 17.585938 8.210938 C 21.804688 10.875 25.253906 14.667969 27.613281 19.1875 C 27.992188 19.917969 28.15625 20.613281 28.488281 21.382812 C 29.164062 22.941406 30.011719 24.542969 30.683594 26.066406 C 31.355469 27.585938 32.007812 29.121094 32.953125 30.382812 C 33.449219 31.050781 35.371094 31.40625 36.246094 31.773438 C 36.859375 32.035156 37.859375 32.304688 38.441406 32.652344 C 39.546875 33.320312 40.621094 34.117188 41.660156 34.847656 C 42.179688 35.214844 43.777344 36.015625 43.855469 36.675781 Z M 11.148438 8.800781 C 10.613281 8.789062 10.230469 8.859375 9.832031 8.945312 L 9.832031 9.019531 L 9.902344 9.019531 C 10.160156 9.542969 10.613281 9.882812 10.929688 10.335938 C 11.171875 10.847656 11.417969 11.359375 11.660156 11.871094 L 11.734375 11.800781 C 12.1875 11.480469 12.394531 10.96875 12.390625 10.191406 C 12.210938 10 12.183594 9.757812 12.027344 9.53125 C 11.816406 9.226562 11.414062 9.054688 11.148438 8.800781 Z M 11.148438 8.800781 "/>
</g>
</svg>
