<?xml version="1.0" encoding="UTF-8"?>
<svg xmlns="http://www.w3.org/2000/svg" xmlns:xlink="http://www.w3.org/1999/xlink" width="48px" height="48px" viewBox="0 0 48 48" version="1.1">
<g id="surface1">
<path style=" stroke:none;fill-rule:nonzero;fill:rgb(38.039216%,85.490196%,98.431373%);fill-opacity:1;" d="M 28.273438 24 C 28.273438 26.359375 26.359375 28.273438 24 28.273438 C 21.640625 28.273438 19.726562 26.359375 19.726562 24 C 19.726562 21.640625 21.640625 19.726562 24 19.726562 C 26.359375 19.726562 28.273438 21.640625 28.273438 24 Z M 28.273438 24 "/>
<path style=" stroke:none;fill-rule:nonzero;fill:rgb(38.039216%,85.490196%,98.431373%);fill-opacity:1;" d="M 40.238281 16.949219 C 39.414062 16.648438 38.550781 16.351562 37.648438 16.085938 C 37.875 15.1875 38.0625 14.289062 38.210938 13.425781 C 39 8.476562 38.136719 4.988281 35.738281 3.636719 C 35.023438 3.226562 34.238281 3.039062 33.335938 3.039062 C 30.710938 3.039062 27.375 4.988281 24 8.25 C 20.625 4.988281 17.289062 3.039062 14.664062 3.039062 C 13.761719 3.039062 12.976562 3.226562 12.261719 3.636719 C 9.863281 5.023438 9 8.511719 9.789062 13.425781 C 9.9375 14.289062 10.125 15.1875 10.351562 16.085938 C 9.449219 16.351562 8.585938 16.613281 7.761719 16.949219 C 3.074219 18.75 0.523438 21.226562 0.523438 24 C 0.523438 26.773438 3.113281 29.25 7.761719 31.050781 C 8.585938 31.351562 9.449219 31.648438 10.351562 31.914062 C 10.125 32.8125 9.9375 33.710938 9.789062 34.574219 C 9 39.523438 9.863281 43.011719 12.261719 44.363281 C 12.976562 44.773438 13.761719 44.960938 14.664062 44.960938 C 17.324219 44.960938 20.664062 43.011719 24 39.75 C 27.375 43.011719 30.710938 44.960938 33.335938 44.960938 C 34.238281 44.960938 35.023438 44.773438 35.738281 44.363281 C 38.136719 42.976562 39 39.488281 38.210938 34.574219 C 38.0625 33.710938 37.875 32.8125 37.648438 31.914062 C 38.550781 31.648438 39.414062 31.386719 40.238281 31.050781 C 44.925781 29.25 47.476562 26.773438 47.476562 24 C 47.476562 21.226562 44.925781 18.75 40.238281 16.949219 Z M 34.6875 5.511719 C 36.226562 6.414062 36.75 9.1875 36.113281 13.125 C 36 13.914062 35.8125 14.738281 35.585938 15.601562 C 33.636719 15.148438 31.574219 14.851562 29.398438 14.664062 C 28.125 12.863281 26.8125 11.25 25.5 9.789062 C 28.273438 7.050781 31.085938 5.175781 33.375 5.175781 C 33.863281 5.175781 34.3125 5.289062 34.6875 5.511719 Z M 30.488281 27.75 C 29.8125 28.949219 29.023438 30.148438 28.199219 31.351562 C 26.8125 31.460938 25.425781 31.5 24 31.5 C 22.539062 31.5 21.148438 31.460938 19.800781 31.351562 C 18.976562 30.148438 18.226562 28.949219 17.550781 27.75 C 16.835938 26.511719 16.164062 25.238281 15.5625 24 C 16.164062 22.761719 16.835938 21.488281 17.550781 20.25 C 18.226562 19.050781 19.011719 17.851562 19.835938 16.648438 C 21.226562 16.539062 22.613281 16.5 24.039062 16.5 C 25.5 16.5 26.886719 16.539062 28.238281 16.648438 C 29.0625 17.851562 29.8125 19.050781 30.488281 20.25 C 31.199219 21.488281 31.875 22.761719 32.476562 24 C 31.835938 25.238281 31.199219 26.476562 30.488281 27.75 Z M 33.601562 26.511719 C 34.164062 27.824219 34.613281 29.101562 35.023438 30.375 C 33.75 30.675781 32.398438 30.898438 30.976562 31.085938 C 31.425781 30.375 31.914062 29.625 32.324219 28.835938 C 32.773438 28.050781 33.1875 27.261719 33.601562 26.511719 Z M 24 36.675781 C 23.101562 35.699219 22.238281 34.648438 21.414062 33.5625 C 22.273438 33.601562 23.136719 33.636719 24 33.636719 C 24.863281 33.636719 25.726562 33.601562 26.585938 33.5625 C 25.761719 34.648438 24.898438 35.699219 24 36.675781 Z M 17.023438 31.050781 C 15.601562 30.863281 14.25 30.636719 12.976562 30.335938 C 13.386719 29.101562 13.835938 27.789062 14.398438 26.476562 C 14.8125 27.226562 15.226562 28.011719 15.675781 28.761719 C 16.125 29.585938 16.574219 30.300781 17.023438 31.050781 Z M 14.398438 21.488281 C 13.835938 20.175781 13.386719 18.898438 12.976562 17.625 C 14.25 17.324219 15.601562 17.101562 17.023438 16.914062 C 16.574219 17.625 16.085938 18.375 15.675781 19.164062 C 15.226562 19.949219 14.8125 20.738281 14.398438 21.488281 Z M 24 11.324219 C 24.898438 12.300781 25.761719 13.351562 26.585938 14.4375 C 25.726562 14.398438 24.863281 14.363281 24 14.363281 C 23.136719 14.363281 22.273438 14.398438 21.414062 14.4375 C 22.238281 13.351562 23.101562 12.300781 24 11.324219 Z M 32.324219 19.199219 L 30.976562 16.949219 C 32.398438 17.136719 33.75 17.363281 35.023438 17.664062 C 34.613281 18.898438 34.164062 20.210938 33.601562 21.523438 C 33.1875 20.738281 32.773438 19.949219 32.324219 19.199219 Z M 11.886719 13.125 C 11.25 9.1875 11.773438 6.414062 13.3125 5.511719 C 13.6875 5.289062 14.136719 5.175781 14.625 5.175781 C 16.875 5.175781 19.6875 7.011719 22.5 9.789062 C 21.1875 11.210938 19.875 12.863281 18.601562 14.664062 C 16.425781 14.851562 14.363281 15.1875 12.414062 15.601562 C 12.1875 14.738281 12.039062 13.914062 11.886719 13.125 Z M 2.625 24 C 2.625 22.238281 4.761719 20.363281 8.511719 18.976562 C 9.261719 18.675781 10.085938 18.414062 10.914062 18.1875 C 11.511719 20.0625 12.261719 22.050781 13.164062 24.039062 C 12.261719 26.023438 11.476562 27.976562 10.914062 29.851562 C 5.738281 28.351562 2.625 26.101562 2.625 24 Z M 13.3125 42.488281 C 11.773438 41.585938 11.25 38.8125 11.886719 34.875 C 12 34.085938 12.1875 33.261719 12.414062 32.398438 C 14.363281 32.851562 16.425781 33.148438 18.601562 33.335938 C 19.875 35.136719 21.1875 36.75 22.5 38.210938 C 19.726562 40.949219 16.914062 42.824219 14.625 42.824219 C 14.136719 42.824219 13.6875 42.710938 13.3125 42.488281 Z M 36.113281 34.875 C 36.75 38.8125 36.226562 41.585938 34.6875 42.488281 C 34.3125 42.710938 33.863281 42.824219 33.375 42.824219 C 31.125 42.824219 28.3125 40.988281 25.5 38.210938 C 26.8125 36.789062 28.125 35.136719 29.398438 33.335938 C 31.574219 33.148438 33.636719 32.8125 35.585938 32.398438 C 35.8125 33.261719 35.960938 34.085938 36.113281 34.875 Z M 39.488281 29.023438 C 38.738281 29.324219 37.914062 29.585938 37.085938 29.8125 C 36.488281 27.9375 35.738281 25.949219 34.835938 23.960938 C 35.738281 21.976562 36.523438 20.023438 37.085938 18.148438 C 42.261719 19.648438 45.375 21.898438 45.375 24 C 45.375 25.761719 43.199219 27.636719 39.488281 29.023438 Z M 39.488281 29.023438 "/>
</g>
</svg>
