<?xml version="1.0" encoding="UTF-8"?>
<svg xmlns="http://www.w3.org/2000/svg" xmlns:xlink="http://www.w3.org/1999/xlink" width="48px" height="48px" viewBox="0 0 48 48" version="1.1">
<g id="surface1">
<path style=" stroke:none;fill-rule:nonzero;fill:rgb(64.313725%,11.764706%,6.666667%);fill-opacity:1;" d="M 45.675781 34.914062 C 43.164062 36.226562 30.148438 41.550781 27.375 43.011719 C 24.601562 44.476562 23.0625 44.4375 20.886719 43.386719 C 18.710938 42.335938 4.875 36.789062 2.363281 35.585938 C 1.125 34.988281 0.488281 34.5 0.488281 34.011719 L 0.488281 29.25 C 0.488281 29.25 18.488281 25.3125 21.414062 24.300781 C 24.335938 23.25 25.3125 23.210938 27.789062 24.113281 C 30.261719 25.011719 45.074219 27.675781 47.511719 28.574219 L 47.511719 33.261719 C 47.511719 33.75 46.949219 34.273438 45.675781 34.914062 Z M 45.675781 34.914062 "/>
<path style=" stroke:none;fill-rule:nonzero;fill:rgb(84.705882%,17.254902%,12.54902%);fill-opacity:1;" d="M 45.675781 30.1875 C 43.164062 31.5 30.148438 36.824219 27.375 38.289062 C 24.601562 39.75 23.0625 39.710938 20.886719 38.664062 C 18.710938 37.613281 4.875 32.023438 2.363281 30.824219 C -0.113281 29.625 -0.1875 28.800781 2.25 27.863281 C 4.6875 26.886719 18.449219 21.488281 21.375 20.476562 C 24.300781 19.425781 25.273438 19.386719 27.75 20.289062 C 30.226562 21.1875 43.164062 26.324219 45.601562 27.226562 C 48.113281 28.125 48.1875 28.875 45.675781 30.1875 Z M 45.675781 30.1875 "/>
<path style=" stroke:none;fill-rule:nonzero;fill:rgb(64.313725%,11.764706%,6.666667%);fill-opacity:1;" d="M 45.675781 27.1875 C 43.164062 28.5 30.148438 33.824219 27.375 35.289062 C 24.601562 36.710938 23.0625 36.710938 20.886719 35.664062 C 18.710938 34.613281 4.875 29.023438 2.363281 27.824219 C 1.125 27.226562 0.488281 26.738281 0.488281 26.25 L 0.488281 21.488281 C 0.488281 21.488281 18.488281 17.550781 21.414062 16.539062 C 24.335938 15.488281 25.3125 15.449219 27.789062 16.351562 C 30.261719 17.25 45.074219 19.914062 47.511719 20.8125 L 47.511719 25.5 C 47.511719 25.988281 46.949219 26.511719 45.675781 27.1875 Z M 45.675781 27.1875 "/>
<path style=" stroke:none;fill-rule:nonzero;fill:rgb(84.705882%,17.254902%,12.54902%);fill-opacity:1;" d="M 45.675781 22.425781 C 43.164062 23.738281 30.148438 29.0625 27.375 30.523438 C 24.601562 31.949219 23.0625 31.949219 20.886719 30.898438 C 18.710938 29.851562 4.875 24.261719 2.363281 23.0625 C -0.148438 21.863281 -0.1875 21.039062 2.25 20.101562 C 4.6875 19.125 18.449219 13.726562 21.375 12.710938 C 24.300781 11.664062 25.273438 11.625 27.75 12.523438 C 30.226562 13.425781 43.164062 18.5625 45.601562 19.460938 C 48.113281 20.363281 48.1875 21.113281 45.675781 22.425781 Z M 45.675781 22.425781 "/>
<path style=" stroke:none;fill-rule:nonzero;fill:rgb(64.313725%,11.764706%,6.666667%);fill-opacity:1;" d="M 45.675781 19.125 C 43.164062 20.4375 30.148438 25.761719 27.375 27.226562 C 24.601562 28.648438 23.0625 28.648438 20.886719 27.601562 C 18.710938 26.585938 4.875 21 2.363281 19.800781 C 1.125 19.199219 0.449219 18.710938 0.449219 18.226562 L 0.449219 13.460938 C 0.449219 13.460938 18.449219 9.523438 21.375 8.511719 C 24.300781 7.460938 25.273438 7.425781 27.75 8.324219 C 30.226562 9.226562 45.039062 11.886719 47.476562 12.789062 L 47.476562 17.476562 C 47.511719 17.960938 46.949219 18.449219 45.675781 19.125 Z M 45.675781 19.125 "/>
<path style=" stroke:none;fill-rule:nonzero;fill:rgb(84.705882%,17.254902%,12.54902%);fill-opacity:1;" d="M 45.675781 14.363281 C 43.164062 15.675781 30.148438 21 27.375 22.460938 C 24.601562 23.886719 23.0625 23.886719 20.886719 22.835938 C 18.710938 21.789062 4.875 16.238281 2.363281 15.039062 C -0.148438 13.835938 -0.1875 13.011719 2.25 12.074219 C 4.6875 11.101562 18.449219 5.699219 21.375 4.6875 C 24.300781 3.636719 25.273438 3.601562 27.75 4.5 C 30.226562 5.398438 43.164062 10.539062 45.601562 11.4375 C 48.113281 12.335938 48.1875 13.085938 45.675781 14.363281 Z M 45.675781 14.363281 "/>
<path style=" stroke:none;fill-rule:nonzero;fill:rgb(100%,100%,100%);fill-opacity:1;" d="M 30.148438 9.789062 L 26.101562 10.238281 L 25.164062 12.414062 L 23.699219 9.976562 L 19.011719 9.5625 L 22.5 8.289062 L 21.449219 6.335938 L 24.75 7.613281 L 27.824219 6.601562 L 27 8.625 Z M 24.9375 20.4375 L 17.324219 17.289062 L 28.238281 15.636719 Z M 24.9375 20.4375 "/>
<path style=" stroke:none;fill-rule:nonzero;fill:rgb(100%,100%,100%);fill-opacity:1;" d="M 20.210938 13.273438 C 20.210938 12.03125 17.609375 11.023438 14.398438 11.023438 C 11.191406 11.023438 8.585938 12.03125 8.585938 13.273438 C 8.585938 14.519531 11.191406 15.523438 14.398438 15.523438 C 17.609375 15.523438 20.210938 14.519531 20.210938 13.273438 Z M 20.210938 13.273438 "/>
<path style=" stroke:none;fill-rule:nonzero;fill:rgb(47.843137%,4.705882%,0%);fill-opacity:1;" d="M 34.988281 10.386719 L 41.4375 12.9375 L 34.988281 15.488281 Z M 34.988281 10.386719 "/>
<path style=" stroke:none;fill-rule:nonzero;fill:rgb(67.843137%,12.941176%,8.235294%);fill-opacity:1;" d="M 27.863281 13.238281 L 34.988281 10.386719 L 34.988281 15.488281 L 34.273438 15.789062 Z M 27.863281 13.238281 "/>
</g>
</svg>
